<?xml version="1.0" standalone="no"?>
<!DOCTYPE svg PUBLIC "-//W3C//DTD SVG 20010904//EN"
 "http://www.w3.org/TR/2001/REC-SVG-20010904/DTD/svg10.dtd">
<svg version="1.0" xmlns="http://www.w3.org/2000/svg"
 width="128.000000pt" height="128.000000pt" viewBox="0 0 128.000000 128.000000"
 preserveAspectRatio="xMidYMid meet">

<g transform="translate(0.000000,128.000000) scale(0.100000,-0.100000)"
fill="#000000" stroke="none">
<path d="M843 1245 c0 -7 6 -11 14 -8 7 3 13 6 13 8 0 2 -6 5 -13 8 -8 3 -14
-1 -14 -8z"/>
<path d="M865 1185 c-33 -8 -65 -14 -70 -14 -6 -1 -15 -9 -22 -19 -11 -18 -7
-18 85 1 54 11 99 22 102 24 5 4 -21 23 -30 22 -3 0 -32 -7 -65 -14z"/>
<path d="M216 1125 c-4 -12 -1 -16 11 -13 18 3 21 20 5 26 -5 1 -12 -4 -16
-13z"/>
<path d="M980 1123 c-14 -2 -59 -11 -100 -19 -41 -9 -91 -18 -110 -21 -32 -5
-75 -31 -66 -40 6 -7 146 30 141 37 -2 4 2 7 10 7 8 0 12 -5 8 -10 -3 -5 3 -7
13 -4 11 3 56 14 101 23 101 21 103 43 3 27z"/>
<path d="M250 1063 c-36 -8 -70 -14 -77 -15 -16 -2 -26 -28 -10 -27 7 0 52 8
102 18 74 14 86 19 70 27 -14 7 -39 6 -85 -3z"/>
<path d="M1065 1058 c-372 -72 -438 -89 -421 -105 9 -9 506 92 503 102 -5 14
-24 14 -82 3z"/>
<path d="M265 984 c-60 -12 -122 -23 -137 -23 -17 -1 -32 -9 -39 -22 -9 -18
-8 -20 8 -15 10 3 86 17 168 32 165 29 192 37 155 49 -14 4 -25 3 -30 -5 -4
-7 -9 -8 -11 -3 -2 5 -53 -1 -114 -13z m92 0 c-3 -3 -12 -4 -19 -1 -8 3 -5 6
6 6 11 1 17 -2 13 -5z"/>
<path d="M1058 969 c-6 -4 -15 -6 -20 -3 -6 4 -247 -41 -518 -97 -52 -11 -104
-21 -115 -23 -11 -2 -82 -16 -158 -30 -76 -14 -144 -26 -150 -26 -7 0 -4 -7 6
-14 14 -11 28 -11 80 0 106 22 421 85 449 89 115 18 163 27 170 31 5 3 23 8
41 10 87 12 251 50 254 60 4 12 -20 14 -39 3z"/>
<path d="M355 921 c-71 -15 -174 -35 -227 -45 -57 -11 -99 -23 -102 -31 -5
-15 30 -13 113 6 25 6 62 13 81 15 19 3 78 14 132 24 53 11 99 20 103 20 3 0
3 6 -1 13 -6 9 -4 9 7 1 8 -6 27 -7 44 -3 17 3 24 7 17 8 -7 0 -10 6 -7 11 9
14 -13 12 -160 -19z"/>
<path d="M960 875 c-41 -8 -93 -19 -115 -24 -22 -6 -116 -25 -210 -42 -93 -17
-221 -41 -282 -55 -62 -13 -124 -24 -138 -24 -14 0 -25 -4 -25 -9 0 -15 40
-24 54 -12 7 6 15 8 18 5 5 -5 307 51 548 102 82 17 81 17 157 29 29 4 50 11
47 16 -3 5 2 9 10 9 9 0 16 5 16 10 0 6 -1 10 -2 9 -2 0 -37 -7 -78 -14z"/>
<path d="M928 787 c-47 -10 -58 -20 -38 -32 6 -3 10 -1 10 6 0 9 3 10 11 2 15
-15 47 -5 60 18 5 11 8 18 7 18 -2 -1 -24 -6 -50 -12z"/>
<path d="M795 759 c-22 -5 -110 -23 -195 -39 -320 -61 -329 -63 -295 -76 10
-4 113 11 229 34 116 23 241 47 279 54 37 7 66 17 64 23 -5 14 -34 15 -82 4z"/>
<path d="M682 656 c-117 -23 -209 -46 -205 -51 4 -4 3 -5 -4 -1 -20 11 -93 -5
-93 -21 0 -12 9 -14 48 -8 26 4 56 14 66 23 13 11 17 12 11 3 -6 -11 -3 -13
16 -8 13 4 85 18 159 32 235 44 239 45 233 61 -3 8 -8 13 -12 13 -3 -1 -102
-20 -219 -43z m191 17 c-7 -2 -19 -2 -25 0 -7 3 -2 5 12 5 14 0 19 -2 13 -5z"/>
<path d="M948 624 c-4 -3 -17 -7 -30 -9 -45 -6 -104 -17 -168 -30 -36 -8 -140
-28 -232 -46 -93 -17 -168 -35 -168 -39 0 -4 -10 -10 -22 -13 -12 -4 -20 -8
-17 -11 3 -3 93 12 200 33 106 22 226 45 266 52 40 6 70 15 68 19 -2 3 8 6 23
6 67 1 82 5 82 19 0 8 7 15 15 15 8 0 15 -5 15 -11 0 -5 5 -7 10 -4 6 4 8 11
5 16 -7 10 -38 12 -47 3z"/>
<path d="M995 553 c-38 -8 -72 -18 -75 -22 -3 -3 -21 -7 -40 -9 -69 -5 -593
-107 -612 -118 -5 -4 -6 -10 -1 -14 11 -11 188 23 209 41 14 11 16 11 10 0 -6
-10 -4 -12 10 -8 11 3 66 15 124 26 297 57 464 91 468 95 5 6 -7 26 -16 25 -4
-1 -38 -8 -77 -16z"/>
<path d="M1120 493 c-14 -2 -113 -21 -220 -43 -107 -21 -280 -55 -385 -76
-104 -20 -194 -39 -200 -42 -5 -3 -19 -6 -30 -7 -11 -1 -32 -2 -47 -3 -15 -1
-32 -10 -37 -20 -9 -17 5 -16 162 15 95 19 181 36 192 38 51 11 122 26 140 29
11 2 40 6 65 10 46 8 376 72 419 82 20 4 22 7 10 15 -14 9 -25 9 -69 2z"/>
<path d="M1011 390 c-134 -27 -246 -51 -249 -54 -21 -21 63 -14 252 23 228 44
247 49 254 69 5 15 30 19 -257 -38z"/>
<path d="M1115 328 c-27 -5 -90 -19 -140 -30 -49 -11 -98 -19 -108 -19 -15 0
-15 -2 -3 -14 12 -12 37 -10 175 18 93 18 163 37 166 45 5 14 -17 14 -90 0z
m-128 -44 c-3 -3 -12 -4 -19 -1 -8 3 -5 6 6 6 11 1 17 -2 13 -5z"/>
<path d="M545 300 c-44 -11 -145 -31 -225 -45 -180 -33 -185 -34 -171 -48 7
-7 30 -7 78 2 38 7 117 22 178 32 60 11 114 24 121 29 6 6 13 8 16 5 11 -11
105 16 105 30 0 18 -2 18 -102 -5z"/>
<path d="M1045 233 c-91 -18 -100 -22 -89 -33 10 -10 142 6 165 21 31 19 -8
25 -76 12z"/>
<path d="M560 219 c-44 -11 -57 -13 -208 -41 -101 -18 -120 -24 -107 -34 9 -7
24 -10 33 -8 9 2 78 15 152 29 97 18 141 31 155 45 11 11 17 20 15 19 -3 -1
-21 -5 -40 -10z"/>
<path d="M1061 151 c-8 -5 -9 -11 -3 -15 5 -3 15 1 22 9 14 16 3 20 -19 6z"/>
<path d="M495 125 c-5 -2 -45 -11 -88 -21 -55 -11 -75 -20 -68 -27 12 -12 147
8 169 25 22 19 14 33 -13 23z"/>
<path d="M430 20 c0 -5 5 -10 10 -10 6 0 10 5 10 10 0 6 -4 10 -10 10 -5 0
-10 -4 -10 -10z"/>
</g>
</svg>
